<svg width="30" height="30" viewBox="0 0 30 30" fill="none" xmlns="http://www.w3.org/2000/svg">
<path d="M15 1.24997V9.99997C15 12.0712 13.3163 13.75 11.2538 13.75H7.49625C6.50254 13.7483 5.55006 13.3526 4.84775 12.6496C4.14545 11.9466 3.75066 10.9937 3.75 9.99997V1.24997H15ZM7.5 8.74997V1.24997V8.74997ZM11.25 8.74997V1.24997V8.74997ZM7.5 13.75V26.88C7.5 27.9125 8.3325 28.75 9.375 28.75C10.41 28.75 11.25 27.9 11.25 26.88V13.75H7.5ZM18.75 22.5V26.875C18.75 27.91 19.5825 28.75 20.625 28.75C21.66 28.75 22.5 27.915 22.5 26.8687V18.75C22.5 18.75 26.25 18.75 26.25 15V8.74997C26.25 4.99997 23.75 2.49997 18.75 2.49997V22.5Z" stroke="white" stroke-width="0.833333"/>
</svg>
